<svg width="455" height="100" viewBox="0 0 455 100" fill="none" xmlns="http://www.w3.org/2000/svg">
<g filter="url(#filter0_d_0_1)">
<path d="M15.2422 35.5352L11.9609 67H4.7832L11.9609 24.8125H22.5957L32.4688 57.0098L42.459 24.8125H53.0938L59.0703 67H47.2344L43.748 36.3555L35.5156 67H24.8809L15.2422 35.5352ZM76.0039 24.9883C76.0039 25.7305 75.8574 26.4336 75.5645 27.0977C75.291 27.7617 74.9102 28.3379 74.4219 28.8262C73.9336 29.3145 73.3574 29.7051 72.6934 29.998C72.0293 30.2715 71.3262 30.4082 70.584 30.4082C69.8418 30.4082 69.1387 30.2715 68.4746 29.998C67.8301 29.7051 67.2637 29.3145 66.7754 28.8262C66.2871 28.3379 65.8965 27.7617 65.6035 27.0977C65.3301 26.4336 65.1934 25.7305 65.1934 24.9883C65.1934 24.2461 65.3301 23.5527 65.6035 22.9082C65.8965 22.2441 66.2871 21.668 66.7754 21.1797C67.2637 20.6914 67.8301 20.3105 68.4746 20.0371C69.1387 19.7441 69.8418 19.5977 70.584 19.5977C71.3262 19.5977 72.0293 19.7441 72.6934 20.0371C73.3574 20.3105 73.9336 20.6914 74.4219 21.1797C74.9102 21.668 75.291 22.2441 75.5645 22.9082C75.8574 23.5527 76.0039 24.2461 76.0039 24.9883ZM75.5645 67H65.6328V33.1914H75.5645V67ZM115.115 41.541L110.838 43.2402C110.154 41.0918 109.012 39.4414 107.41 38.2891C105.809 37.1367 103.885 36.5605 101.639 36.5605C100.428 36.5605 99.3438 36.7559 98.3867 37.1465C97.4492 37.5176 96.6191 38.0352 95.8965 38.6992C95.1934 39.3633 94.5879 40.1348 94.0801 41.0137C93.5918 41.8926 93.1914 42.8301 92.8789 43.8262C92.5664 44.8223 92.3418 45.8574 92.2051 46.9316C92.0684 47.9863 92 49.0117 92 50.0078C92 51.082 92.0586 52.166 92.1758 53.2598C92.293 54.3535 92.4883 55.4082 92.7617 56.4238C93.0547 57.4199 93.4355 58.3574 93.9043 59.2363C94.373 60.0957 94.959 60.8477 95.6621 61.4922C96.3848 62.1367 97.2344 62.6445 98.2109 63.0156C99.207 63.3867 100.35 63.5723 101.639 63.5723C102.674 63.5723 103.66 63.416 104.598 63.1035C105.535 62.791 106.395 62.3516 107.176 61.7852C107.957 61.2188 108.65 60.5449 109.256 59.7637C109.861 58.9824 110.34 58.1133 110.691 57.1562L114.998 58.7383C114.354 60.2812 113.494 61.6191 112.42 62.752C111.365 63.8652 110.164 64.793 108.816 65.5352C107.469 66.2578 106.023 66.7949 104.48 67.1465C102.938 67.498 101.375 67.6738 99.793 67.6738C97.2344 67.6738 94.8613 67.2441 92.6738 66.3848C90.4863 65.5059 88.5918 64.2852 86.9902 62.7227C85.4082 61.1406 84.168 59.2754 83.2695 57.127C82.3711 54.959 81.9219 52.5859 81.9219 50.0078C81.9219 47.4102 82.3613 45.0273 83.2402 42.8594C84.1387 40.6914 85.3789 38.8262 86.9609 37.2637C88.543 35.7012 90.4277 34.4902 92.6152 33.6309C94.8027 32.7715 97.1953 32.3418 99.793 32.3418C101.434 32.3418 103.035 32.5273 104.598 32.8984C106.16 33.25 107.605 33.8066 108.934 34.5684C110.281 35.3105 111.482 36.2578 112.537 37.4102C113.611 38.5625 114.471 39.9395 115.115 41.541ZM155.574 47.6055C155.574 49.8906 155.291 52.2734 154.725 54.7539C154.178 57.2344 153.406 59.666 152.41 62.0488C151.414 64.4316 150.223 66.668 148.836 68.7578C147.449 70.8672 145.926 72.6836 144.266 74.207L140.545 72.1855C141.072 71.209 141.57 70.1152 142.039 68.9043C142.508 67.6934 142.928 66.4141 143.299 65.0664C143.689 63.6992 144.031 62.293 144.324 60.8477C144.637 59.4023 144.891 57.9766 145.086 56.5703C145.301 55.1445 145.457 53.7676 145.555 52.4395C145.672 51.0918 145.73 49.8418 145.73 48.6895C145.73 47.9277 145.701 47.1172 145.643 46.2578C145.584 45.3789 145.457 44.5098 145.262 43.6504C145.086 42.7715 144.842 41.9316 144.529 41.1309C144.217 40.3301 143.797 39.627 143.27 39.0215C142.762 38.416 142.137 37.9277 141.395 37.5566C140.672 37.1855 139.812 37 138.816 37C137.84 37 136.971 37.2246 136.209 37.6738C135.447 38.1035 134.773 38.6797 134.188 39.4023C133.602 40.1055 133.094 40.916 132.664 41.834C132.254 42.752 131.912 43.6992 131.639 44.6758C131.385 45.6328 131.199 46.5801 131.082 47.5176C130.965 48.4551 130.906 49.2949 130.906 50.0371V67H120.975V20.7109H130.877V38.1426C132.146 36.2871 133.699 34.8613 135.535 33.8652C137.391 32.8496 139.441 32.3418 141.688 32.3418C144.031 32.3418 146.072 32.7227 147.811 33.4844C149.549 34.2461 150.994 35.3105 152.146 36.6777C153.299 38.0254 154.158 39.6367 154.725 41.5117C155.291 43.3672 155.574 45.3984 155.574 47.6055ZM196.18 67H186.277V62.957C185.105 64.5586 183.689 65.75 182.029 66.5312C180.389 67.293 178.582 67.6738 176.609 67.6738C174.031 67.6738 171.727 67.2148 169.695 66.2969C167.664 65.3789 165.945 64.1289 164.539 62.5469C163.133 60.9453 162.059 59.0703 161.316 56.9219C160.574 54.7734 160.203 52.4688 160.203 50.0078C160.203 47.5469 160.574 45.2422 161.316 43.0938C162.059 40.9453 163.133 39.0801 164.539 37.498C165.945 35.8965 167.664 34.6367 169.695 33.7188C171.727 32.8008 174.031 32.3418 176.609 32.3418C177.918 32.3418 179.158 32.5371 180.33 32.9277C181.521 33.3184 182.605 33.875 183.582 34.5977C184.578 35.3008 185.447 36.1602 186.189 37.1758C186.951 38.1719 187.547 39.2852 187.977 40.5156L192.371 33.1621H196.18V67ZM186.219 50.0078C186.219 49.1289 186.17 48.2012 186.072 47.2246C185.994 46.248 185.848 45.2812 185.633 44.3242C185.418 43.3672 185.115 42.459 184.725 41.5996C184.354 40.7207 183.865 39.9492 183.26 39.2852C182.674 38.6016 181.961 38.0645 181.121 37.6738C180.281 37.2832 179.305 37.0879 178.191 37.0879C177.078 37.0879 176.111 37.293 175.291 37.7031C174.471 38.0938 173.768 38.6309 173.182 39.3145C172.596 39.9785 172.107 40.75 171.717 41.6289C171.346 42.5078 171.053 43.4258 170.838 44.3828C170.623 45.3398 170.467 46.3066 170.369 47.2832C170.291 48.2402 170.252 49.1484 170.252 50.0078C170.252 50.8672 170.291 51.7852 170.369 52.7617C170.467 53.7383 170.623 54.7051 170.838 55.6621C171.053 56.6191 171.346 57.5371 171.717 58.416C172.107 59.2949 172.596 60.0762 173.182 60.7598C173.768 61.4238 174.471 61.9609 175.291 62.3711C176.111 62.7617 177.078 62.957 178.191 62.957C179.207 62.957 180.105 62.752 180.887 62.3418C181.688 61.9121 182.381 61.3457 182.967 60.6426C183.572 59.9395 184.08 59.1387 184.49 58.2402C184.9 57.3418 185.232 56.4141 185.486 55.457C185.74 54.5 185.926 53.5527 186.043 52.6152C186.16 51.6582 186.219 50.7891 186.219 50.0078ZM223.689 43.0059L217.303 46.8145V67H207.371V52.7031L201.541 56.1895V49.9199L207.371 46.4336V17.5762H211.18L217.303 27.8594V40.5449L223.689 36.7363V43.0059ZM257.938 67H246.307V24.8125H269.1C271.072 24.8125 272.957 25.0762 274.754 25.6035C276.57 26.1309 278.172 26.9316 279.559 28.0059C280.945 29.0605 282.049 30.3984 282.869 32.0195C283.709 33.6211 284.129 35.5059 284.129 37.6738C284.129 39.041 283.934 40.3301 283.543 41.541C283.152 42.7324 282.605 43.8262 281.902 44.8223C281.219 45.8184 280.408 46.7168 279.471 47.5176C278.533 48.3184 277.508 48.9922 276.395 49.5391C275.281 50.0859 274.1 50.5059 272.85 50.7988C271.619 51.0918 270.369 51.2383 269.1 51.2383H257.938V67ZM272.352 37.6738C272.352 34.959 271.658 32.8301 270.271 31.2871C268.904 29.7246 266.834 28.9434 264.061 28.9434H257.938V47.2539H264.061C265.545 47.2539 266.805 47.0195 267.84 46.5508C268.895 46.0625 269.754 45.3887 270.418 44.5293C271.082 43.6699 271.57 42.6641 271.883 41.5117C272.195 40.3398 272.352 39.0605 272.352 37.6738ZM322.977 67H313.074V62.957C311.902 64.5586 310.486 65.75 308.826 66.5312C307.186 67.293 305.379 67.6738 303.406 67.6738C300.828 67.6738 298.523 67.2148 296.492 66.2969C294.461 65.3789 292.742 64.1289 291.336 62.5469C289.93 60.9453 288.855 59.0703 288.113 56.9219C287.371 54.7734 287 52.4688 287 50.0078C287 47.5469 287.371 45.2422 288.113 43.0938C288.855 40.9453 289.93 39.0801 291.336 37.498C292.742 35.8965 294.461 34.6367 296.492 33.7188C298.523 32.8008 300.828 32.3418 303.406 32.3418C304.715 32.3418 305.955 32.5371 307.127 32.9277C308.318 33.3184 309.402 33.875 310.379 34.5977C311.375 35.3008 312.244 36.1602 312.986 37.1758C313.748 38.1719 314.344 39.2852 314.773 40.5156L319.168 33.1621H322.977V67ZM313.016 50.0078C313.016 49.1289 312.967 48.2012 312.869 47.2246C312.791 46.248 312.645 45.2812 312.43 44.3242C312.215 43.3672 311.912 42.459 311.521 41.5996C311.15 40.7207 310.662 39.9492 310.057 39.2852C309.471 38.6016 308.758 38.0645 307.918 37.6738C307.078 37.2832 306.102 37.0879 304.988 37.0879C303.875 37.0879 302.908 37.293 302.088 37.7031C301.268 38.0938 300.564 38.6309 299.979 39.3145C299.393 39.9785 298.904 40.75 298.514 41.6289C298.143 42.5078 297.85 43.4258 297.635 44.3828C297.42 45.3398 297.264 46.3066 297.166 47.2832C297.088 48.2402 297.049 49.1484 297.049 50.0078C297.049 50.8672 297.088 51.7852 297.166 52.7617C297.264 53.7383 297.42 54.7051 297.635 55.6621C297.85 56.6191 298.143 57.5371 298.514 58.416C298.904 59.2949 299.393 60.0762 299.979 60.7598C300.564 61.4238 301.268 61.9609 302.088 62.3711C302.908 62.7617 303.875 62.957 304.988 62.957C306.004 62.957 306.902 62.752 307.684 62.3418C308.484 61.9121 309.178 61.3457 309.764 60.6426C310.369 59.9395 310.877 59.1387 311.287 58.2402C311.697 57.3418 312.029 56.4141 312.283 55.457C312.537 54.5 312.723 53.5527 312.84 52.6152C312.957 51.6582 313.016 50.7891 313.016 50.0078ZM346.443 67H337.537L328.279 33.1621H338.182L343.982 56.8926L348.816 33.1621H357.723L363.641 57.5371L369.354 33.1621H376.209L365.955 67H357.049L352.039 46.4336L346.443 67ZM391.15 67H381.248V17.5762H385.057L391.15 27.8594V67ZM409.812 24.9883C409.812 25.7305 409.666 26.4336 409.373 27.0977C409.1 27.7617 408.719 28.3379 408.23 28.8262C407.742 29.3145 407.166 29.7051 406.502 29.998C405.838 30.2715 405.135 30.4082 404.393 30.4082C403.65 30.4082 402.947 30.2715 402.283 29.998C401.639 29.7051 401.072 29.3145 400.584 28.8262C400.096 28.3379 399.705 27.7617 399.412 27.0977C399.139 26.4336 399.002 25.7305 399.002 24.9883C399.002 24.2461 399.139 23.5527 399.412 22.9082C399.705 22.2441 400.096 21.668 400.584 21.1797C401.072 20.6914 401.639 20.3105 402.283 20.0371C402.947 19.7441 403.65 19.5977 404.393 19.5977C405.135 19.5977 405.838 19.7441 406.502 20.0371C407.166 20.3105 407.742 20.6914 408.23 21.1797C408.719 21.668 409.1 22.2441 409.373 22.9082C409.666 23.5527 409.812 24.2461 409.812 24.9883ZM409.373 67H399.441V33.1914H409.373V67ZM427.596 67H417.693V20.7109H427.596V51.0918C429.217 49.9199 430.809 48.6309 432.371 47.2246C433.953 45.8184 435.457 44.3438 436.883 42.8008C438.309 41.2383 439.627 39.6465 440.838 38.0254C442.068 36.4043 443.143 34.7832 444.061 33.1621H450.799C449.432 35.4668 447.811 37.7715 445.936 40.0762C444.061 42.3613 442.02 44.5488 439.812 46.6387L450.916 67H439.988L432.107 52.8789C430.643 53.875 429.139 54.793 427.596 55.6328V67Z" fill="#EEEEEE"/>
</g>
<defs>
<filter id="filter0_d_0_1" x="0.783203" y="17.5762" width="454.133" height="64.6309" filterUnits="userSpaceOnUse" color-interpolation-filters="sRGB">
<feFlood flood-opacity="0" result="BackgroundImageFix"/>
<feColorMatrix in="SourceAlpha" type="matrix" values="0 0 0 0 0 0 0 0 0 0 0 0 0 0 0 0 0 0 127 0" result="hardAlpha"/>
<feOffset dy="4"/>
<feGaussianBlur stdDeviation="2"/>
<feComposite in2="hardAlpha" operator="out"/>
<feColorMatrix type="matrix" values="0 0 0 0 0 0 0 0 0 0 0 0 0 0 0 0 0 0 0.25 0"/>
<feBlend mode="normal" in2="BackgroundImageFix" result="effect1_dropShadow_0_1"/>
<feBlend mode="normal" in="SourceGraphic" in2="effect1_dropShadow_0_1" result="shape"/>
</filter>
</defs>
</svg>
